<svg xmlns:xlink="http://www.w3.org/1999/xlink" xmlns="http://www.w3.org/2000/svg" fill="none" viewBox="0 0 1303 839" height="839" width="1303">
  <rect fill="url(#pattern0)" height="770" width="1277" y="34" x="26"></rect>
  <rect fill-opacity="0.4" fill="#1C1C1C" height="770" width="1277" y="34" x="26"></rect>
  <circle fill="#C77C17" r="2.91034" cy="2.91034" cx="1152.91"></circle>
  <circle fill="#C77C17" r="2.91034" cy="14.551" cx="1152.91"></circle>
  <circle fill="#C77C17" r="2.91034" cy="26.1916" cx="1152.91"></circle>
  <circle fill="#C77C17" r="2.91034" cy="37.8361" cx="1152.91"></circle>
  <circle fill="#C77C17" r="2.91034" cy="49.4767" cx="1152.91"></circle>
  <circle fill="#C77C17" r="2.91034" cy="61.1174" cx="1152.91"></circle>
  <circle fill="#C77C17" r="2.91034" cy="72.758" cx="1152.91"></circle>
  <circle fill="#C77C17" r="2.91034" cy="84.3986" cx="1152.91"></circle>
  <circle fill="#C77C17" r="2.91034" cy="96.0392" cx="1152.91"></circle>
  <circle fill="#C77C17" r="2.91034" cy="107.684" cx="1152.91"></circle>
  <circle fill="#C77C17" r="2.91034" cy="119.324" cx="1152.91"></circle>
  <circle fill="#C77C17" r="2.91034" cy="2.91034" cx="1166.01"></circle>
  <circle fill="#C77C17" r="2.91034" cy="14.551" cx="1166.01"></circle>
  <circle fill="#C77C17" r="2.91034" cy="26.1916" cx="1166.01"></circle>
  <circle fill="#C77C17" r="2.91034" cy="37.8361" cx="1166.01"></circle>
  <circle fill="#C77C17" r="2.91034" cy="49.4767" cx="1166.01"></circle>
  <circle fill="#C77C17" r="2.91034" cy="61.1174" cx="1166.01"></circle>
  <circle fill="#C77C17" r="2.91034" cy="72.758" cx="1166.01"></circle>
  <circle fill="#C77C17" r="2.91034" cy="84.3986" cx="1166.01"></circle>
  <circle fill="#C77C17" r="2.91034" cy="96.0392" cx="1166.01"></circle>
  <circle fill="#C77C17" r="2.91034" cy="107.684" cx="1166.01"></circle>
  <circle fill="#C77C17" r="2.91034" cy="119.324" cx="1166.01"></circle>
  <circle fill="#C77C17" r="2.91034" cy="2.91034" cx="1218.39"></circle>
  <circle fill="#C77C17" r="2.91034" cy="14.551" cx="1218.39"></circle>
  <circle fill="#C77C17" r="2.91034" cy="26.1916" cx="1218.39"></circle>
  <circle fill="#C77C17" r="2.91034" cy="37.8361" cx="1218.39"></circle>
  <circle fill="#C77C17" r="2.91034" cy="49.4767" cx="1218.39"></circle>
  <circle fill="#C77C17" r="2.91034" cy="61.1174" cx="1218.39"></circle>
  <circle fill="#C77C17" r="2.91034" cy="72.758" cx="1218.39"></circle>
  <circle fill="#C77C17" r="2.91034" cy="84.3986" cx="1218.39"></circle>
  <circle fill="#C77C17" r="2.91034" cy="96.0392" cx="1218.39"></circle>
  <circle fill="#C77C17" r="2.91034" cy="107.684" cx="1218.39"></circle>
  <circle fill="#C77C17" r="2.91034" cy="119.324" cx="1218.39"></circle>
  <circle fill="#C77C17" r="2.91034" cy="2.91034" cx="1179.1"></circle>
  <circle fill="#C77C17" r="2.91034" cy="14.551" cx="1179.1"></circle>
  <circle fill="#C77C17" r="2.91034" cy="26.1916" cx="1179.1"></circle>
  <circle fill="#C77C17" r="2.91034" cy="37.8361" cx="1179.1"></circle>
  <circle fill="#C77C17" r="2.91034" cy="49.4767" cx="1179.1"></circle>
  <circle fill="#C77C17" r="2.91034" cy="61.1174" cx="1179.1"></circle>
  <circle fill="#C77C17" r="2.91034" cy="72.758" cx="1179.1"></circle>
  <circle fill="#C77C17" r="2.91034" cy="84.3986" cx="1179.1"></circle>
  <circle fill="#C77C17" r="2.91034" cy="96.0392" cx="1179.1"></circle>
  <circle fill="#C77C17" r="2.91034" cy="107.684" cx="1179.1"></circle>
  <circle fill="#C77C17" r="2.91034" cy="119.324" cx="1179.1"></circle>
  <circle fill="#C77C17" r="2.91034" cy="2.91034" cx="1231.49"></circle>
  <circle fill="#C77C17" r="2.91034" cy="14.551" cx="1231.49"></circle>
  <circle fill="#C77C17" r="2.91034" cy="26.1916" cx="1231.49"></circle>
  <circle fill="#C77C17" r="2.91034" cy="37.8361" cx="1231.49"></circle>
  <circle fill="#C77C17" r="2.91034" cy="49.4767" cx="1231.49"></circle>
  <circle fill="#C77C17" r="2.91034" cy="61.1174" cx="1231.49"></circle>
  <circle fill="#C77C17" r="2.91034" cy="72.758" cx="1231.49"></circle>
  <circle fill="#C77C17" r="2.91034" cy="84.3986" cx="1231.49"></circle>
  <circle fill="#C77C17" r="2.91034" cy="96.0392" cx="1231.49"></circle>
  <circle fill="#C77C17" r="2.91034" cy="107.684" cx="1231.49"></circle>
  <circle fill="#C77C17" r="2.91034" cy="119.324" cx="1231.49"></circle>
  <circle fill="#C77C17" r="2.91034" cy="2.91034" cx="1192.2"></circle>
  <circle fill="#C77C17" r="2.91034" cy="14.551" cx="1192.2"></circle>
  <circle fill="#C77C17" r="2.91034" cy="26.1916" cx="1192.2"></circle>
  <circle fill="#C77C17" r="2.91034" cy="37.8361" cx="1192.2"></circle>
  <circle fill="#C77C17" r="2.91034" cy="49.4767" cx="1192.2"></circle>
  <circle fill="#C77C17" r="2.91034" cy="61.1174" cx="1192.2"></circle>
  <circle fill="#C77C17" r="2.91034" cy="72.758" cx="1192.2"></circle>
  <circle fill="#C77C17" r="2.91034" cy="84.3986" cx="1192.2"></circle>
  <circle fill="#C77C17" r="2.91034" cy="96.0392" cx="1192.2"></circle>
  <circle fill="#C77C17" r="2.91034" cy="107.684" cx="1192.2"></circle>
  <circle fill="#C77C17" r="2.91034" cy="119.324" cx="1192.2"></circle>
  <circle fill="#C77C17" r="2.91034" cy="2.91034" cx="1244.59"></circle>
  <circle fill="#C77C17" r="2.91034" cy="14.551" cx="1244.59"></circle>
  <circle fill="#C77C17" r="2.91034" cy="26.1916" cx="1244.59"></circle>
  <circle fill="#C77C17" r="2.91034" cy="37.8361" cx="1244.59"></circle>
  <circle fill="#C77C17" r="2.91034" cy="49.4767" cx="1244.59"></circle>
  <circle fill="#C77C17" r="2.91034" cy="61.1174" cx="1244.59"></circle>
  <circle fill="#C77C17" r="2.91034" cy="72.758" cx="1244.59"></circle>
  <circle fill="#C77C17" r="2.91034" cy="84.3986" cx="1244.59"></circle>
  <circle fill="#C77C17" r="2.91034" cy="96.0392" cx="1244.59"></circle>
  <circle fill="#C77C17" r="2.91034" cy="107.684" cx="1244.59"></circle>
  <circle fill="#C77C17" r="2.91034" cy="119.324" cx="1244.59"></circle>
  <circle fill="#C77C17" r="2.91034" cy="2.91034" cx="1205.3"></circle>
  <circle fill="#C77C17" r="2.91034" cy="14.551" cx="1205.3"></circle>
  <circle fill="#C77C17" r="2.91034" cy="26.1916" cx="1205.3"></circle>
  <circle fill="#C77C17" r="2.91034" cy="37.8361" cx="1205.3"></circle>
  <circle fill="#C77C17" r="2.91034" cy="49.4767" cx="1205.3"></circle>
  <circle fill="#C77C17" r="2.91034" cy="61.1174" cx="1205.3"></circle>
  <circle fill="#C77C17" r="2.91034" cy="72.758" cx="1205.3"></circle>
  <circle fill="#C77C17" r="2.91034" cy="84.3986" cx="1205.3"></circle>
  <circle fill="#C77C17" r="2.91034" cy="96.0392" cx="1205.3"></circle>
  <circle fill="#C77C17" r="2.91034" cy="107.684" cx="1205.3"></circle>
  <circle fill="#C77C17" r="2.91034" cy="119.324" cx="1205.3"></circle>
  <circle fill="#C77C17" r="2.91034" cy="2.91034" cx="1257.68"></circle>
  <circle fill="#C77C17" r="2.91034" cy="14.551" cx="1257.68"></circle>
  <circle fill="#C77C17" r="2.91034" cy="26.1916" cx="1257.68"></circle>
  <circle fill="#C77C17" r="2.91034" cy="37.8361" cx="1257.68"></circle>
  <circle fill="#C77C17" r="2.91034" cy="49.4767" cx="1257.68"></circle>
  <circle fill="#C77C17" r="2.91034" cy="61.1174" cx="1257.68"></circle>
  <circle fill="#C77C17" r="2.91034" cy="72.758" cx="1257.68"></circle>
  <circle fill="#C77C17" r="2.91034" cy="84.3986" cx="1257.68"></circle>
  <circle fill="#C77C17" r="2.91034" cy="96.0392" cx="1257.68"></circle>
  <circle fill="#C77C17" r="2.91034" cy="107.684" cx="1257.68"></circle>
  <circle fill="#C77C17" r="2.91034" cy="119.324" cx="1257.68"></circle>
  <circle fill="#C77C17" r="2.91034" cy="2.91034" cx="1270.78"></circle>
  <circle fill="#C77C17" r="2.91034" cy="14.551" cx="1270.78"></circle>
  <circle fill="#C77C17" r="2.91034" cy="26.1916" cx="1270.78"></circle>
  <circle fill="#C77C17" r="2.91034" cy="37.8361" cx="1270.78"></circle>
  <circle fill="#C77C17" r="2.91034" cy="49.4767" cx="1270.78"></circle>
  <circle fill="#C77C17" r="2.91034" cy="61.1174" cx="1270.78"></circle>
  <circle fill="#C77C17" r="2.91034" cy="72.758" cx="1270.78"></circle>
  <circle fill="#C77C17" r="2.91034" cy="84.3986" cx="1270.78"></circle>
  <circle fill="#C77C17" r="2.91034" cy="96.0392" cx="1270.78"></circle>
  <circle fill="#C77C17" r="2.91034" cy="107.684" cx="1270.78"></circle>
  <circle fill="#C77C17" r="2.91034" cy="119.324" cx="1270.78"></circle>
  <circle fill="#C983FC" r="2.91034" cy="718.91" cx="2.91034"></circle>
  <circle fill="#C983FC" r="2.91034" cy="730.551" cx="2.91034"></circle>
  <circle fill="#C983FC" r="2.91034" cy="742.192" cx="2.91034"></circle>
  <circle fill="#C983FC" r="2.91034" cy="753.836" cx="2.91034"></circle>
  <circle fill="#C983FC" r="2.91034" cy="765.477" cx="2.91034"></circle>
  <circle fill="#C983FC" r="2.91034" cy="777.117" cx="2.91034"></circle>
  <circle fill="#C983FC" r="2.91034" cy="788.758" cx="2.91034"></circle>
  <circle fill="#C983FC" r="2.91034" cy="800.399" cx="2.91034"></circle>
  <circle fill="#C983FC" r="2.91034" cy="812.039" cx="2.91034"></circle>
  <circle fill="#C983FC" r="2.91034" cy="823.684" cx="2.91034"></circle>
  <circle fill="#C983FC" r="2.91034" cy="835.324" cx="2.91034"></circle>
  <circle fill="#C983FC" r="2.91034" cy="718.91" cx="16.008"></circle>
  <circle fill="#C983FC" r="2.91034" cy="730.551" cx="16.008"></circle>
  <circle fill="#C983FC" r="2.91034" cy="742.192" cx="16.008"></circle>
  <circle fill="#C983FC" r="2.91034" cy="753.836" cx="16.008"></circle>
  <circle fill="#C983FC" r="2.91034" cy="765.477" cx="16.008"></circle>
  <circle fill="#C983FC" r="2.91034" cy="777.117" cx="16.008"></circle>
  <circle fill="#C983FC" r="2.91034" cy="788.758" cx="16.008"></circle>
  <circle fill="#C983FC" r="2.91034" cy="800.399" cx="16.008"></circle>
  <circle fill="#C983FC" r="2.91034" cy="812.039" cx="16.008"></circle>
  <circle fill="#C983FC" r="2.91034" cy="823.684" cx="16.008"></circle>
  <circle fill="#C983FC" r="2.91034" cy="835.324" cx="16.008"></circle>
  <circle fill="#C983FC" r="2.91034" cy="718.91" cx="68.3947"></circle>
  <circle fill="#C983FC" r="2.91034" cy="730.551" cx="68.3947"></circle>
  <circle fill="#C983FC" r="2.91034" cy="742.192" cx="68.3947"></circle>
  <circle fill="#C983FC" r="2.91034" cy="753.836" cx="68.3947"></circle>
  <circle fill="#C983FC" r="2.91034" cy="765.477" cx="68.3947"></circle>
  <circle fill="#C983FC" r="2.91034" cy="777.117" cx="68.3947"></circle>
  <circle fill="#C983FC" r="2.91034" cy="788.758" cx="68.3947"></circle>
  <circle fill="#C983FC" r="2.91034" cy="800.399" cx="68.3947"></circle>
  <circle fill="#C983FC" r="2.91034" cy="812.039" cx="68.3947"></circle>
  <circle fill="#C983FC" r="2.91034" cy="823.684" cx="68.3947"></circle>
  <circle fill="#C983FC" r="2.91034" cy="835.324" cx="68.3947"></circle>
  <circle fill="#C983FC" r="2.91034" cy="718.91" cx="29.1017"></circle>
  <circle fill="#C983FC" r="2.91034" cy="730.551" cx="29.1017"></circle>
  <circle fill="#C983FC" r="2.91034" cy="742.192" cx="29.1017"></circle>
  <circle fill="#C983FC" r="2.91034" cy="753.836" cx="29.1017"></circle>
  <circle fill="#C983FC" r="2.91034" cy="765.477" cx="29.1017"></circle>
  <circle fill="#C983FC" r="2.91034" cy="777.117" cx="29.1017"></circle>
  <circle fill="#C983FC" r="2.91034" cy="788.758" cx="29.1017"></circle>
  <circle fill="#C983FC" r="2.91034" cy="800.399" cx="29.1017"></circle>
  <circle fill="#C983FC" r="2.91034" cy="812.039" cx="29.1017"></circle>
  <circle fill="#C983FC" r="2.91034" cy="823.684" cx="29.1017"></circle>
  <circle fill="#C983FC" r="2.91034" cy="835.324" cx="29.1017"></circle>
  <circle fill="#C983FC" r="2.91034" cy="718.91" cx="81.4885"></circle>
  <circle fill="#C983FC" r="2.91034" cy="730.551" cx="81.4885"></circle>
  <circle fill="#C983FC" r="2.91034" cy="742.192" cx="81.4885"></circle>
  <circle fill="#C983FC" r="2.91034" cy="753.836" cx="81.4885"></circle>
  <circle fill="#C983FC" r="2.91034" cy="765.477" cx="81.4885"></circle>
  <circle fill="#C983FC" r="2.91034" cy="777.117" cx="81.4885"></circle>
  <circle fill="#C983FC" r="2.91034" cy="788.758" cx="81.4885"></circle>
  <circle fill="#C983FC" r="2.91034" cy="800.399" cx="81.4885"></circle>
  <circle fill="#C983FC" r="2.91034" cy="812.039" cx="81.4885"></circle>
  <circle fill="#C983FC" r="2.91034" cy="823.684" cx="81.4885"></circle>
  <circle fill="#C983FC" r="2.91034" cy="835.324" cx="81.4885"></circle>
  <circle fill="#C983FC" r="2.91034" cy="718.91" cx="42.1994"></circle>
  <circle fill="#C983FC" r="2.91034" cy="730.551" cx="42.1994"></circle>
  <circle fill="#C983FC" r="2.91034" cy="742.192" cx="42.1994"></circle>
  <circle fill="#C983FC" r="2.91034" cy="753.836" cx="42.1994"></circle>
  <circle fill="#C983FC" r="2.91034" cy="765.477" cx="42.1994"></circle>
  <circle fill="#C983FC" r="2.91034" cy="777.117" cx="42.1994"></circle>
  <circle fill="#C983FC" r="2.91034" cy="788.758" cx="42.1994"></circle>
  <circle fill="#C983FC" r="2.91034" cy="800.399" cx="42.1994"></circle>
  <circle fill="#C983FC" r="2.91034" cy="812.039" cx="42.1994"></circle>
  <circle fill="#C983FC" r="2.91034" cy="823.684" cx="42.1994"></circle>
  <circle fill="#C983FC" r="2.91034" cy="835.324" cx="42.1994"></circle>
  <circle fill="#C983FC" r="2.91034" cy="718.91" cx="94.5861"></circle>
  <circle fill="#C983FC" r="2.91034" cy="730.551" cx="94.5861"></circle>
  <circle fill="#C983FC" r="2.91034" cy="742.192" cx="94.5861"></circle>
  <circle fill="#C983FC" r="2.91034" cy="753.836" cx="94.5861"></circle>
  <circle fill="#C983FC" r="2.91034" cy="765.477" cx="94.5861"></circle>
  <circle fill="#C983FC" r="2.91034" cy="777.117" cx="94.5861"></circle>
  <circle fill="#C983FC" r="2.91034" cy="788.758" cx="94.5861"></circle>
  <circle fill="#C983FC" r="2.91034" cy="800.399" cx="94.5861"></circle>
  <circle fill="#C983FC" r="2.91034" cy="812.039" cx="94.5861"></circle>
  <circle fill="#C983FC" r="2.91034" cy="823.684" cx="94.5861"></circle>
  <circle fill="#C983FC" r="2.91034" cy="835.324" cx="94.5861"></circle>
  <circle fill="#C983FC" r="2.91034" cy="718.91" cx="55.2971"></circle>
  <circle fill="#C983FC" r="2.91034" cy="730.551" cx="55.2971"></circle>
  <circle fill="#C983FC" r="2.91034" cy="742.192" cx="55.2971"></circle>
  <circle fill="#C983FC" r="2.91034" cy="753.836" cx="55.2971"></circle>
  <circle fill="#C983FC" r="2.91034" cy="765.477" cx="55.2971"></circle>
  <circle fill="#C983FC" r="2.91034" cy="777.117" cx="55.2971"></circle>
  <circle fill="#C983FC" r="2.91034" cy="788.758" cx="55.2971"></circle>
  <circle fill="#C983FC" r="2.91034" cy="800.399" cx="55.2971"></circle>
  <circle fill="#C983FC" r="2.91034" cy="812.039" cx="55.2971"></circle>
  <circle fill="#C983FC" r="2.91034" cy="823.684" cx="55.2971"></circle>
  <circle fill="#C983FC" r="2.91034" cy="835.324" cx="55.2971"></circle>
  <circle fill="#C983FC" r="2.91034" cy="718.91" cx="107.684"></circle>
  <circle fill="#C983FC" r="2.91034" cy="730.551" cx="107.684"></circle>
  <circle fill="#C983FC" r="2.91034" cy="742.192" cx="107.684"></circle>
  <circle fill="#C983FC" r="2.91034" cy="753.836" cx="107.684"></circle>
  <circle fill="#C983FC" r="2.91034" cy="765.477" cx="107.684"></circle>
  <circle fill="#C983FC" r="2.91034" cy="777.117" cx="107.684"></circle>
  <circle fill="#C983FC" r="2.91034" cy="788.758" cx="107.684"></circle>
  <circle fill="#C983FC" r="2.91034" cy="800.399" cx="107.684"></circle>
  <circle fill="#C983FC" r="2.91034" cy="812.039" cx="107.684"></circle>
  <circle fill="#C983FC" r="2.91034" cy="823.684" cx="107.684"></circle>
  <circle fill="#C983FC" r="2.91034" cy="835.324" cx="107.684"></circle>
  <circle fill="#C983FC" r="2.91034" cy="718.91" cx="120.778"></circle>
  <circle fill="#C983FC" r="2.91034" cy="730.551" cx="120.778"></circle>
  <circle fill="#C983FC" r="2.91034" cy="742.192" cx="120.778"></circle>
  <circle fill="#C983FC" r="2.91034" cy="753.836" cx="120.778"></circle>
  <circle fill="#C983FC" r="2.91034" cy="765.477" cx="120.778"></circle>
  <circle fill="#C983FC" r="2.91034" cy="777.117" cx="120.778"></circle>
  <circle fill="#C983FC" r="2.91034" cy="788.758" cx="120.778"></circle>
  <circle fill="#C983FC" r="2.91034" cy="800.399" cx="120.778"></circle>
  <circle fill="#C983FC" r="2.91034" cy="812.039" cx="120.778"></circle>
  <circle fill="#C983FC" r="2.91034" cy="823.684" cx="120.778"></circle>
  <circle fill="#C983FC" r="2.91034" cy="835.324" cx="120.778"></circle>
  <defs>
    <pattern height="1" width="1" patternContentUnits="objectBoundingBox" id="pattern0">
      <use transform="translate(0 -0.0530838) scale(0.000976562 0.00161957)" xlink:href="#image0"></use>
    </pattern>
    
  </defs>
</svg>
